<svg width="76" height="69" viewBox="0 0 76 69" fill="none" xmlns="http://www.w3.org/2000/svg">
<path d="M59.7626 17.5325C59.1391 15.8565 57.393 14.6634 55.3352 14.6634H21.038C18.9802 14.6634 17.2653 15.8565 16.6105 17.5325L10.1252 34.5481V57.2736C10.1252 58.836 11.5283 60.1143 13.2432 60.1143H16.3611C18.076 60.1143 19.479 58.836 19.479 57.2736V54.4329H56.8941V57.2736C56.8941 58.836 58.2972 60.1143 60.0121 60.1143H63.13C64.8449 60.1143 66.2479 58.836 66.2479 57.2736V34.5481L59.7626 17.5325ZM21.038 45.9109C18.4501 45.9109 16.3611 44.0076 16.3611 41.6498C16.3611 39.2921 18.4501 37.3888 21.038 37.3888C23.6259 37.3888 25.7149 39.2921 25.7149 41.6498C25.7149 44.0076 23.6259 45.9109 21.038 45.9109ZM55.3352 45.9109C52.7473 45.9109 50.6583 44.0076 50.6583 41.6498C50.6583 39.2921 52.7473 37.3888 55.3352 37.3888C57.9231 37.3888 60.0121 39.2921 60.0121 41.6498C60.0121 44.0076 57.9231 45.9109 55.3352 45.9109ZM16.3611 31.7075L21.038 18.9244H55.3352L60.0121 31.7075H16.3611Z" fill="white"/>
</svg>
