<svg width="73" height="70" viewBox="0 0 73 70" fill="none" xmlns="http://www.w3.org/2000/svg">
<g clip-path="url(#clip0_298_4082)">
<path d="M57.4264 26.427L61.139 18.5938L69.3069 15.0332L61.139 11.4727L57.4264 3.63946L53.7137 11.4727L45.5459 15.0332L53.7137 18.5938L57.4264 26.427ZM35.1504 27.8513L27.7251 12.1848L20.2998 27.8513L3.96405 34.9724L20.2998 42.0935L27.7251 57.7599L35.1504 42.0935L51.4861 34.9724L35.1504 27.8513ZM57.4264 43.5177L53.7137 51.3509L45.5459 54.9115L53.7137 58.4721L57.4264 66.3053L61.139 58.4721L69.3069 54.9115L61.139 51.3509L57.4264 43.5177Z" fill="white"/>
</g>
<defs>
<clipPath id="clip0_298_4082">
<rect width="71.2831" height="68.3627" fill="white" transform="translate(0.993896 0.791016)"/>
</clipPath>
</defs>
</svg>
