<svg width="72" height="70" viewBox="0 0 72 70" fill="none" xmlns="http://www.w3.org/2000/svg">
<path d="M35.9316 9.33635C21.17 9.33635 9.20042 20.8156 9.20042 34.9724C9.20042 49.1291 21.17 60.6084 35.9316 60.6084C38.3968 60.6084 40.3868 58.6999 40.3868 56.3357C40.3868 55.2248 39.9413 54.2279 39.2284 53.4588C38.5453 52.7182 38.0998 51.7212 38.0998 50.6388C38.0998 48.2746 40.0898 46.3662 42.555 46.3662H47.8121C56.0097 46.3662 62.6628 39.9856 62.6628 32.1239C62.6628 19.5338 50.6931 9.33635 35.9316 9.33635ZM19.5959 34.9724C17.1307 34.9724 15.1407 33.0639 15.1407 30.6997C15.1407 28.3355 17.1307 26.427 19.5959 26.427C22.0611 26.427 24.0511 28.3355 24.0511 30.6997C24.0511 33.0639 22.0611 34.9724 19.5959 34.9724ZM28.5063 23.5786C26.0411 23.5786 24.0511 21.6701 24.0511 19.3059C24.0511 16.9417 26.0411 15.0332 28.5063 15.0332C30.9715 15.0332 32.9615 16.9417 32.9615 19.3059C32.9615 21.6701 30.9715 23.5786 28.5063 23.5786ZM43.3569 23.5786C40.8917 23.5786 38.9017 21.6701 38.9017 19.3059C38.9017 16.9417 40.8917 15.0332 43.3569 15.0332C45.8221 15.0332 47.8121 16.9417 47.8121 19.3059C47.8121 21.6701 45.8221 23.5786 43.3569 23.5786ZM52.2673 34.9724C49.8021 34.9724 47.8121 33.0639 47.8121 30.6997C47.8121 28.3355 49.8021 26.427 52.2673 26.427C54.7325 26.427 56.7225 28.3355 56.7225 30.6997C56.7225 33.0639 54.7325 34.9724 52.2673 34.9724Z" fill="white"/>
</svg>
