<svg width="68" height="66" viewBox="0 0 68 66" fill="none" xmlns="http://www.w3.org/2000/svg">
<g clip-path="url(#clip0_298_4098)">
<path d="M43.7284 15.6113C46.8152 15.6113 49.3407 13.1893 49.3407 10.229C49.3407 7.26871 46.8152 4.84666 43.7284 4.84666C40.6417 4.84666 38.1161 7.26871 38.1161 10.229C38.1161 13.1893 40.6417 15.6113 43.7284 15.6113ZM14.264 33.104C6.40683 33.104 0.233337 39.0245 0.233337 46.5598C0.233337 54.0951 6.40683 60.0157 14.264 60.0157C22.1212 60.0157 28.2947 54.0951 28.2947 46.5598C28.2947 39.0245 22.1212 33.104 14.264 33.104ZM14.264 55.9789C8.93235 55.9789 4.44254 51.673 4.44254 46.5598C4.44254 41.4466 8.93235 37.1407 14.264 37.1407C19.5957 37.1407 24.0855 41.4466 24.0855 46.5598C24.0855 51.673 19.5957 55.9789 14.264 55.9789ZM30.5396 29.0672L37.2743 22.6084L39.5192 24.7613C43.1672 28.2598 47.9376 30.4128 53.8305 30.4128V25.0304C49.6213 25.0304 46.2539 23.4157 43.7284 20.9937L38.3968 15.8805C36.9937 14.804 35.5906 14.2658 33.9069 14.2658C32.2233 14.2658 30.8202 14.804 29.9784 15.8805L22.1212 23.4157C20.9987 24.4922 20.4375 25.8378 20.4375 27.1834C20.4375 28.7981 20.9987 30.1437 22.1212 30.951L31.1008 38.4863V51.9421H36.7131V35.2569L30.5396 29.0672ZM53.5499 33.104C45.6927 33.104 39.5192 39.0245 39.5192 46.5598C39.5192 54.0951 45.6927 60.0157 53.5499 60.0157C61.4071 60.0157 67.5806 54.0951 67.5806 46.5598C67.5806 39.0245 61.4071 33.104 53.5499 33.104ZM53.5499 55.9789C48.2182 55.9789 43.7284 51.673 43.7284 46.5598C43.7284 41.4466 48.2182 37.1407 53.5499 37.1407C58.8815 37.1407 63.3714 41.4466 63.3714 46.5598C63.3714 51.673 58.8815 55.9789 53.5499 55.9789Z" fill="white"/>
</g>
<defs>
<clipPath id="clip0_298_4098">
<rect width="67.3472" height="64.5881" fill="white" transform="translate(0.233337 0.809906)"/>
</clipPath>
</defs>
</svg>
