<svg width="69" height="66" viewBox="0 0 69 66" fill="none" xmlns="http://www.w3.org/2000/svg">
<path d="M34.4126 59.9444C48.359 59.9444 59.6678 49.0989 59.6678 35.7238C45.7213 35.7238 34.4126 46.5692 34.4126 59.9444ZM16.4533 28.3231C16.4533 32.0369 19.5962 35.051 23.4686 35.051C24.9559 35.051 26.3028 34.6204 27.4533 33.8669L27.3972 34.3782C27.3972 38.092 30.5401 41.1062 34.4126 41.1062C38.285 41.1062 41.4279 38.092 41.4279 34.3782L41.3718 33.8669C42.4942 34.6204 43.8692 35.051 45.3565 35.051C49.2289 35.051 52.3718 32.0369 52.3718 28.3231C52.3718 25.6319 50.7162 23.3444 48.359 22.268C50.7162 21.1915 52.3718 18.904 52.3718 16.2128C52.3718 12.499 49.2289 9.4849 45.3565 9.4849C43.8692 9.4849 42.5223 9.91549 41.3718 10.669L41.4279 10.1577C41.4279 6.44388 38.285 3.42977 34.4126 3.42977C30.5401 3.42977 27.3972 6.44388 27.3972 10.1577L27.4533 10.669C26.3309 9.91549 24.9559 9.4849 23.4686 9.4849C19.5962 9.4849 16.4533 12.499 16.4533 16.2128C16.4533 18.904 18.1089 21.1915 20.4661 22.268C18.1089 23.3444 16.4533 25.6319 16.4533 28.3231ZM34.4126 15.54C38.285 15.54 41.4279 18.5541 41.4279 22.268C41.4279 25.9818 38.285 28.9959 34.4126 28.9959C30.5401 28.9959 27.3972 25.9818 27.3972 22.268C27.3972 18.5541 30.5401 15.54 34.4126 15.54ZM9.15735 35.7238C9.15735 49.0989 20.4661 59.9444 34.4126 59.9444C34.4126 46.5692 23.1038 35.7238 9.15735 35.7238Z" fill="white"/>
</svg>
