<svg width="68" height="66" viewBox="0 0 68 66" fill="none" xmlns="http://www.w3.org/2000/svg">
<path d="M33.8403 6.12094C18.3504 6.12094 5.77893 18.1774 5.77893 33.0326C5.77893 47.8879 18.3504 59.9444 33.8403 59.9444C49.3301 59.9444 61.9016 47.8879 61.9016 33.0326C61.9016 18.1774 49.3301 6.12094 33.8403 6.12094ZM37.7969 49.4219V54.562H30.3045V49.368C25.5061 48.3992 21.4372 45.4389 21.1285 40.2181H26.6285C26.9091 43.0438 28.9295 45.2506 34.0648 45.2506C39.5648 45.2506 40.7995 42.6132 40.7995 40.9716C40.7995 38.7379 39.5648 36.6388 33.3071 35.2125C26.3479 33.5978 21.5775 30.8528 21.5775 25.3359C21.5775 20.7071 25.478 17.693 30.3045 16.6972V11.5033H37.7969V16.7511C43.0163 17.9621 45.626 21.7566 45.7944 25.8741H40.2944C40.1541 22.8869 38.4985 20.8416 34.0648 20.8416C29.8556 20.8416 27.33 22.6716 27.33 25.2552C27.33 27.5157 29.154 28.9959 34.8224 30.3953C40.4908 31.7947 46.5521 34.136 46.5521 40.9178C46.524 45.8426 42.6796 48.5338 37.7969 49.4219Z" fill="white"/>
</svg>
