<svg width="68" height="66" viewBox="0 0 68 66" fill="none" xmlns="http://www.w3.org/2000/svg">
<path d="M37.038 19.5831H31.4257V30.3478H20.2012V35.7301H31.4257V46.4948H37.038V35.7301H48.2626V30.3478H37.038V19.5831ZM34.2319 6.12727C18.742 6.12727 6.17053 18.1837 6.17053 33.039C6.17053 47.8942 18.742 59.9507 34.2319 59.9507C49.7217 59.9507 62.2932 47.8942 62.2932 33.039C62.2932 18.1837 49.7217 6.12727 34.2319 6.12727ZM34.2319 54.5683C21.8568 54.5683 11.7828 44.907 11.7828 33.039C11.7828 21.1709 21.8568 11.5096 34.2319 11.5096C46.6069 11.5096 56.681 21.1709 56.681 33.039C56.681 44.907 46.6069 54.5683 34.2319 54.5683Z" fill="white"/>
</svg>
