<svg width="69" height="66" viewBox="0 0 69 66" fill="none" xmlns="http://www.w3.org/2000/svg">
<path d="M59.8066 27.6503C56.7198 27.6503 54.1943 30.0724 54.1943 33.0327V41.1062H14.9084V33.0327C14.9084 30.0724 12.411 27.6503 9.29618 27.6503C6.18137 27.6503 3.68391 30.0724 3.68391 33.0327V46.4885C3.68391 49.4488 6.20943 51.8708 9.29618 51.8708H59.8066C62.8933 51.8708 65.4189 49.4488 65.4189 46.4885V33.0327C65.4189 30.0724 62.8933 27.6503 59.8066 27.6503ZM51.3882 14.1945H17.7146C14.6278 14.1945 12.1023 16.6165 12.1023 19.5768V25.3628C15.3574 26.4662 17.7146 29.4534 17.7146 32.925V38.415H51.3882V32.9519C51.3882 29.4534 53.7453 26.4931 57.0005 25.3897V19.5768C57.0005 16.6165 54.4749 14.1945 51.3882 14.1945Z" fill="white"/>
</svg>
