<svg width="69" height="66" viewBox="0 0 69 66" fill="none" xmlns="http://www.w3.org/2000/svg">
<g clip-path="url(#clip0_298_4130)">
<path d="M54.0555 6.05696H42.3259C41.1473 2.9352 38.0605 0.674622 34.4126 0.674622C30.7646 0.674622 27.6778 2.9352 26.4993 6.05696H14.7696C11.6829 6.05696 9.15735 8.47902 9.15735 11.4393V54.498C9.15735 57.4583 11.6829 59.8804 14.7696 59.8804H54.0555C57.1422 59.8804 59.6678 57.4583 59.6678 54.498V11.4393C59.6678 8.47902 57.1422 6.05696 54.0555 6.05696ZM34.4126 6.05696C35.9559 6.05696 37.2187 7.26799 37.2187 8.74813C37.2187 10.2283 35.9559 11.4393 34.4126 11.4393C32.8692 11.4393 31.6064 10.2283 31.6064 8.74813C31.6064 7.26799 32.8692 6.05696 34.4126 6.05696ZM54.0555 54.498H14.7696V11.4393H20.3819V19.5128H48.4432V11.4393H54.0555V54.498Z" fill="white"/>
</g>
<defs>
<clipPath id="clip0_298_4130">
<rect width="67.3472" height="64.5881" fill="white" transform="translate(0.738953 0.674622)"/>
</clipPath>
</defs>
</svg>
