<svg width="73" height="73" viewBox="0 0 73 73" fill="none" xmlns="http://www.w3.org/2000/svg">
<path d="M60.5905 24.3638H51.5703V12.3359H9.47578C6.16835 12.3359 3.46228 15.0421 3.46228 18.3498V51.4265H9.47578C9.47578 56.4181 13.5048 60.4474 18.496 60.4474C23.4872 60.4474 27.5163 56.4181 27.5163 51.4265H45.5568C45.5568 56.4181 49.5858 60.4474 54.577 60.4474C59.5682 60.4474 63.5973 56.4181 63.5973 51.4265H69.6108V36.3916L60.5905 24.3638ZM18.496 55.9369C16.0004 55.9369 13.9859 53.9223 13.9859 51.4265C13.9859 48.9307 16.0004 46.916 18.496 46.916C20.9916 46.916 23.0061 48.9307 23.0061 51.4265C23.0061 53.9223 20.9916 55.9369 18.496 55.9369ZM59.0871 28.8742L64.9804 36.3916H51.5703V28.8742H59.0871ZM54.577 55.9369C52.0814 55.9369 50.0669 53.9223 50.0669 51.4265C50.0669 48.9307 52.0814 46.916 54.577 46.916C57.0726 46.916 59.0871 48.9307 59.0871 51.4265C59.0871 53.9223 57.0726 55.9369 54.577 55.9369Z" fill="white"/>
</svg>
