<svg width="68" height="66" viewBox="0 0 68 66" fill="none" xmlns="http://www.w3.org/2000/svg">
<g clip-path="url(#clip0_298_4154)">
<path d="M47.7265 41.0485L52.076 45.2199C49.3821 49.7679 42.7316 53.401 36.502 54.2891V30.2839H44.9204V24.9015H36.502V21.7259C39.7571 20.5956 42.1142 17.6354 42.1142 14.1368C42.1142 9.6964 38.3259 6.06332 33.6958 6.06332C29.0657 6.06332 25.2774 9.6964 25.2774 14.1368C25.2774 17.6354 27.6346 20.5956 30.8897 21.7259V24.9015H22.4713V30.2839H30.8897V54.2891C24.6601 53.401 18.0095 49.7679 15.3156 45.2199L19.6651 41.0485L8.44061 32.975V41.0485C8.44061 51.4903 22.2468 59.8867 33.6958 59.8867C45.1448 59.8867 58.951 51.4903 58.951 41.0485V32.975L47.7265 41.0485ZM33.6958 11.4457C35.2392 11.4457 36.502 12.6567 36.502 14.1368C36.502 15.617 35.2392 16.828 33.6958 16.828C32.1524 16.828 30.8897 15.617 30.8897 14.1368C30.8897 12.6567 32.1524 11.4457 33.6958 11.4457Z" fill="white"/>
</g>
<defs>
<clipPath id="clip0_298_4154">
<rect width="67.3472" height="64.5881" fill="white" transform="translate(0.0222168 0.680969)"/>
</clipPath>
</defs>
</svg>
