<svg width="68" height="66" viewBox="0 0 68 66" fill="none" xmlns="http://www.w3.org/2000/svg">
<g clip-path="url(#clip0_298_4110)">
<path d="M13.0053 32.9814C16.8798 32.9814 20.0207 29.9692 20.0207 26.2534C20.0207 22.5377 16.8798 19.5255 13.0053 19.5255C9.13086 19.5255 5.98999 22.5377 5.98999 26.2534C5.98999 29.9692 9.13086 32.9814 13.0053 32.9814Z" fill="white"/>
<path d="M25.6329 22.2167C29.5074 22.2167 32.6483 19.2045 32.6483 15.4888C32.6483 11.773 29.5074 8.76083 25.6329 8.76083C21.7585 8.76083 18.6176 11.773 18.6176 15.4888C18.6176 19.2045 21.7585 22.2167 25.6329 22.2167Z" fill="white"/>
<path d="M42.4697 22.2167C46.3442 22.2167 49.4851 19.2045 49.4851 15.4888C49.4851 11.773 46.3442 8.76083 42.4697 8.76083C38.5953 8.76083 35.4544 11.773 35.4544 15.4888C35.4544 19.2045 38.5953 22.2167 42.4697 22.2167Z" fill="white"/>
<path d="M55.0973 32.9814C58.9718 32.9814 62.1127 29.9692 62.1127 26.2534C62.1127 22.5377 58.9718 19.5255 55.0973 19.5255C51.2229 19.5255 48.082 22.5377 48.082 26.2534C48.082 29.9692 51.2229 32.9814 55.0973 32.9814Z" fill="white"/>
<path d="M49.0361 40.6781C46.5948 37.9331 44.5463 35.5918 42.0769 32.8468C40.7861 31.3936 39.1304 29.9403 37.1661 29.2945C36.8575 29.1868 36.5488 29.1061 36.2401 29.0523C35.5386 28.9446 34.7809 28.9446 34.0513 28.9446C33.3217 28.9446 32.5641 28.9446 31.8345 29.0792C31.5258 29.133 31.2171 29.2137 30.9085 29.3214C28.9442 29.9673 27.3166 31.4205 25.9977 32.8737C23.5564 35.6187 21.5079 37.96 19.0385 40.705C15.3625 44.2305 10.8446 48.1327 11.6864 53.5957C12.5002 56.3407 14.5487 59.0588 18.2247 59.8392C20.2732 60.2429 26.8115 58.6551 33.7707 58.6551H34.2758C41.235 58.6551 47.7733 60.216 49.8218 59.8392C53.4978 59.0588 55.5463 56.3138 56.3601 53.5957C57.23 48.1057 52.7121 44.2035 49.0361 40.6781Z" fill="white"/>
</g>
<defs>
<clipPath id="clip0_298_4110">
<rect width="67.3472" height="64.5881" fill="white" transform="translate(0.377716 0.687317)"/>
</clipPath>
</defs>
</svg>
