<svg width="23" height="23" viewBox="0 0 23 23" fill="none" xmlns="http://www.w3.org/2000/svg">
<path d="M11.5 12.4583C12.0293 12.4583 12.4584 12.0292 12.4584 11.5C12.4584 10.9707 12.0293 10.5416 11.5 10.5416C10.9707 10.5416 10.5417 10.9707 10.5417 11.5C10.5417 12.0292 10.9707 12.4583 11.5 12.4583Z" stroke="white" stroke-width="2" stroke-linecap="round" stroke-linejoin="round"/>
<path d="M18.2083 12.4583C18.7376 12.4583 19.1667 12.0292 19.1667 11.5C19.1667 10.9707 18.7376 10.5416 18.2083 10.5416C17.6791 10.5416 17.25 10.9707 17.25 11.5C17.25 12.0292 17.6791 12.4583 18.2083 12.4583Z" stroke="white" stroke-width="2" stroke-linecap="round" stroke-linejoin="round"/>
<path d="M4.79165 12.4583C5.32092 12.4583 5.74998 12.0292 5.74998 11.5C5.74998 10.9707 5.32092 10.5416 4.79165 10.5416C4.26237 10.5416 3.83331 10.9707 3.83331 11.5C3.83331 12.0292 4.26237 12.4583 4.79165 12.4583Z" stroke="white" stroke-width="2" stroke-linecap="round" stroke-linejoin="round"/>
</svg>
