<svg width="137" height="33" viewBox="0 0 137 33" fill="none" xmlns="http://www.w3.org/2000/svg">
<path d="M12.6055 25.3516C8.78516 25.3516 5.80859 24.3145 3.67578 22.2402C1.54297 20.1543 0.476562 17.2363 0.476562 13.4863C0.476562 9.43164 1.50195 6.36719 3.55273 4.29297C5.60352 2.20703 8.64453 1.16406 12.6758 1.16406C15.125 1.16406 17.7559 1.46289 20.5684 2.06055L20.6738 7.21094H19.5137L18.9863 4.15234C18.166 3.64844 17.2109 3.26172 16.1211 2.99219C15.043 2.71094 13.9414 2.57031 12.8164 2.57031C9.80469 2.57031 7.60742 3.45508 6.22461 5.22461C4.8418 6.99414 4.15039 9.73633 4.15039 13.4512C4.15039 16.873 4.87109 19.4863 6.3125 21.291C7.76562 23.0957 9.875 23.998 12.6406 23.998C13.9766 23.998 15.2363 23.8398 16.4199 23.5234C17.6035 23.1953 18.541 22.7617 19.2324 22.2227L19.8828 18.707H21.0254L20.9199 24.2441C18.3418 24.9824 15.5703 25.3516 12.6055 25.3516ZM34.6836 8.03711V12.502H33.9277L32.9082 10.5684C32.3223 10.5684 31.625 10.6504 30.8164 10.8145C30.0195 10.9668 29.3281 11.1719 28.7422 11.4297V23.7695L31.5723 24.209V25H23.7324V24.209L25.8242 23.7695V9.70703L23.7324 9.26758V8.47656H28.5488L28.707 10.5332C29.4102 9.94727 30.3594 9.38477 31.5547 8.8457C32.7617 8.30664 33.7168 8.03711 34.4199 8.03711H34.6836ZM43.1738 8.10742C44.9785 8.10742 46.3027 8.47656 47.1465 9.21484C48.002 9.95312 48.4297 11.084 48.4297 12.6074V23.7695L50.4863 24.209V25H45.9512L45.6172 23.3477C44.2812 24.6836 42.5762 25.3516 40.502 25.3516C37.6777 25.3516 36.2656 23.7109 36.2656 20.4297C36.2656 19.3281 36.4766 18.4199 36.8984 17.7051C37.332 16.9785 38.0176 16.4277 38.9551 16.0527C39.8926 15.666 41.252 15.4551 43.0332 15.4199L45.5117 15.3496V12.7656C45.5117 11.6289 45.3008 10.791 44.8789 10.252C44.4688 9.71289 43.8301 9.44336 42.9629 9.44336C41.791 9.44336 40.7188 9.71875 39.7461 10.2695L39.1484 12.3262H38.1641V8.72266C40.0625 8.3125 41.7324 8.10742 43.1738 8.10742ZM45.5117 16.5801L43.209 16.6504C41.6387 16.709 40.5723 17.0137 40.0098 17.5645C39.459 18.1152 39.1836 19.0352 39.1836 20.3242C39.1836 22.3867 40.0215 23.418 41.6973 23.418C42.4941 23.418 43.1797 23.3301 43.7539 23.1543C44.3398 22.9668 44.9258 22.7324 45.5117 22.4512V16.5801ZM57.6582 3.08008C57.6582 3.5957 57.4707 4.04102 57.0957 4.41602C56.7207 4.79102 56.2695 4.97852 55.7422 4.97852C55.2266 4.97852 54.7812 4.79102 54.4062 4.41602C54.0312 4.04102 53.8438 3.5957 53.8438 3.08008C53.8438 2.55273 54.0312 2.10156 54.4062 1.72656C54.7812 1.35156 55.2266 1.16406 55.7422 1.16406C56.2695 1.16406 56.7207 1.35156 57.0957 1.72656C57.4707 2.10156 57.6582 2.55273 57.6582 3.08008ZM57.4824 23.7695L60.3125 24.209V25H51.752V24.209L54.5645 23.7695V9.70703L52.2266 9.26758V8.47656H57.4824V23.7695ZM76.3086 13.6973C76.3086 15.5957 75.7402 17.0312 74.6035 18.0039C73.4668 18.9766 71.832 19.4629 69.6992 19.4629C68.7383 19.4629 67.8477 19.375 67.0273 19.1992L65.9199 21.502C65.9551 21.7012 66.1836 21.8887 66.6055 22.0645C67.0273 22.2402 67.5547 22.3281 68.1875 22.3281H73.0742C74.8555 22.3281 76.1738 22.7148 77.0293 23.4883C77.8965 24.2617 78.3301 25.3281 78.3301 26.6875C78.3301 27.918 77.9844 28.9902 77.293 29.9043C76.6133 30.8184 75.6113 31.5215 74.2871 32.0137C72.9629 32.5176 71.3574 32.7695 69.4707 32.7695C67.2207 32.7695 65.5039 32.4238 64.3203 31.7324C63.1484 31.041 62.5625 30.0566 62.5625 28.7793C62.5625 28.1582 62.7734 27.543 63.1953 26.9336C63.6172 26.3359 64.3906 25.6328 65.5156 24.8242C64.8477 24.6016 64.2852 24.2207 63.8281 23.6816C63.3711 23.1426 63.1426 22.5625 63.1426 21.9414L65.9199 18.8125C64.0684 17.9453 63.1426 16.2402 63.1426 13.6973C63.1426 11.8926 63.7109 10.498 64.8477 9.51367C65.9961 8.5293 67.6602 8.03711 69.8398 8.03711C70.2734 8.03711 70.8301 8.08398 71.5098 8.17773C72.1895 8.25977 72.7109 8.35938 73.0742 8.47656L76.959 6.52539L77.5742 7.28125L75.1309 9.8125C75.916 10.6914 76.3086 11.9863 76.3086 13.6973ZM75.5879 27.2324C75.5879 26.5645 75.3828 26.043 74.9727 25.668C74.5625 25.293 73.9414 25.1055 73.1094 25.1055H66.7109C66.2188 25.5273 65.8145 26.0605 65.498 26.7051C65.1934 27.3613 65.041 27.9707 65.041 28.5332C65.041 29.541 65.4043 30.2617 66.1309 30.6953C66.8574 31.1406 67.9707 31.3633 69.4707 31.3633C71.4277 31.3633 72.9336 31 73.9883 30.2734C75.0547 29.5469 75.5879 28.5332 75.5879 27.2324ZM69.7344 18.127C71.0117 18.127 71.9141 17.7637 72.4414 17.0371C72.9805 16.2988 73.25 15.1855 73.25 13.6973C73.25 12.1387 72.9746 11.0312 72.4238 10.375C71.873 9.70703 70.9883 9.37305 69.7695 9.37305C68.5391 9.37305 67.6367 9.70703 67.0625 10.375C66.4883 11.043 66.2012 12.1504 66.2012 13.6973C66.2012 15.2441 66.4824 16.3691 67.0449 17.0723C67.6074 17.7754 68.5039 18.127 69.7344 18.127ZM91.7246 20.3594C91.7246 22 91.2031 23.2422 90.1602 24.0859C89.1289 24.9297 87.5996 25.3516 85.5723 25.3516C84.752 25.3516 83.8438 25.2637 82.8477 25.0879C81.8633 24.9238 81.0898 24.7363 80.5273 24.5254V20.4648H81.3184L82.1797 22.7676C83.0586 23.5645 84.2012 23.9629 85.6074 23.9629C87.8809 23.9629 89.0176 22.9902 89.0176 21.0449C89.0176 19.6152 88.1211 18.5957 86.3281 17.9863L84.7637 17.4766C83.5801 17.0898 82.7188 16.6973 82.1797 16.2988C81.6406 15.9004 81.2246 15.4141 80.9316 14.8398C80.6387 14.2539 80.4922 13.5508 80.4922 12.7305C80.4922 11.2773 80.9844 10.1348 81.9688 9.30273C82.9648 8.45898 84.3066 8.03711 85.9941 8.03711C87.2012 8.03711 88.7129 8.21875 90.5293 8.58203V12.1855H89.7031L88.9648 10.2695C88.3438 9.71875 87.3652 9.44336 86.0293 9.44336C85.0801 9.44336 84.3535 9.67773 83.8496 10.1465C83.3574 10.6152 83.1113 11.248 83.1113 12.0449C83.1113 12.7129 83.334 13.2754 83.7793 13.7324C84.2363 14.1895 84.9219 14.5703 85.8359 14.875C87.5586 15.4609 88.6836 15.8887 89.2109 16.1582C89.7383 16.4277 90.1836 16.7617 90.5469 17.1602C90.9219 17.5469 91.209 17.9922 91.4082 18.4961C91.6191 19 91.7246 19.6211 91.7246 20.3594ZM99.4941 23.7695L102.324 24.209V25H93.7637V24.209L96.5762 23.7695V1.23438L93.7637 0.8125V0.0214844H99.4941V23.7695ZM109.725 3.08008C109.725 3.5957 109.537 4.04102 109.162 4.41602C108.787 4.79102 108.336 4.97852 107.809 4.97852C107.293 4.97852 106.848 4.79102 106.473 4.41602C106.098 4.04102 105.91 3.5957 105.91 3.08008C105.91 2.55273 106.098 2.10156 106.473 1.72656C106.848 1.35156 107.293 1.16406 107.809 1.16406C108.336 1.16406 108.787 1.35156 109.162 1.72656C109.537 2.10156 109.725 2.55273 109.725 3.08008ZM109.549 23.7695L112.379 24.209V25H103.818V24.209L106.631 23.7695V9.70703L104.293 9.26758V8.47656H109.549V23.7695ZM125.791 20.3594C125.791 22 125.27 23.2422 124.227 24.0859C123.195 24.9297 121.666 25.3516 119.639 25.3516C118.818 25.3516 117.91 25.2637 116.914 25.0879C115.93 24.9238 115.156 24.7363 114.594 24.5254V20.4648H115.385L116.246 22.7676C117.125 23.5645 118.268 23.9629 119.674 23.9629C121.947 23.9629 123.084 22.9902 123.084 21.0449C123.084 19.6152 122.188 18.5957 120.395 17.9863L118.83 17.4766C117.646 17.0898 116.785 16.6973 116.246 16.2988C115.707 15.9004 115.291 15.4141 114.998 14.8398C114.705 14.2539 114.559 13.5508 114.559 12.7305C114.559 11.2773 115.051 10.1348 116.035 9.30273C117.031 8.45898 118.373 8.03711 120.061 8.03711C121.268 8.03711 122.779 8.21875 124.596 8.58203V12.1855H123.77L123.031 10.2695C122.41 9.71875 121.432 9.44336 120.096 9.44336C119.146 9.44336 118.42 9.67773 117.916 10.1465C117.424 10.6152 117.178 11.248 117.178 12.0449C117.178 12.7129 117.4 13.2754 117.846 13.7324C118.303 14.1895 118.988 14.5703 119.902 14.875C121.625 15.4609 122.75 15.8887 123.277 16.1582C123.805 16.4277 124.25 16.7617 124.613 17.1602C124.988 17.5469 125.275 17.9922 125.475 18.4961C125.686 19 125.791 19.6211 125.791 20.3594ZM132.98 25.3516C131.855 25.3516 131.012 25.0176 130.449 24.3496C129.898 23.6816 129.623 22.7441 129.623 21.5371V9.95312H127.461V9.16211L129.658 8.47656L131.434 4.73242H132.541V8.47656H136.32V9.95312H132.541V21.2207C132.541 21.9824 132.711 22.5566 133.051 22.9434C133.402 23.3301 133.859 23.5234 134.422 23.5234C135.102 23.5234 135.928 23.4297 136.9 23.2422V24.3848C136.49 24.666 135.898 24.8945 135.125 25.0703C134.352 25.2578 133.637 25.3516 132.98 25.3516Z" fill="#465FE3"/>
</svg>
