<svg width="129" height="34" viewBox="0 0 129 34" fill="none" xmlns="http://www.w3.org/2000/svg">
<path d="M0 8C0 3.58172 3.58172 0 8 0H121C125.418 0 129 3.58172 129 8V26C129 30.4183 125.418 34 121 34H8C3.58173 34 0 30.4183 0 26V8Z" fill="#314DE0"/>
<path d="M25.0703 24.2344C22.5234 24.2344 20.5391 23.543 19.1172 22.1602C17.6953 20.7695 16.9844 18.8242 16.9844 16.3242C16.9844 13.6211 17.668 11.5781 19.0352 10.1953C20.4023 8.80469 22.4297 8.10938 25.1172 8.10938C26.75 8.10938 28.5039 8.30859 30.3789 8.70703L30.4492 12.1406H29.6758L29.3242 10.1016C28.7773 9.76562 28.1406 9.50781 27.4141 9.32812C26.6953 9.14062 25.9609 9.04688 25.2109 9.04688C23.2031 9.04688 21.7383 9.63672 20.8164 10.8164C19.8945 11.9961 19.4336 13.8242 19.4336 16.3008C19.4336 18.582 19.9141 20.3242 20.875 21.5273C21.8438 22.7305 23.25 23.332 25.0938 23.332C25.9844 23.332 26.8242 23.2266 27.6133 23.0156C28.4023 22.7969 29.0273 22.5078 29.4883 22.1484L29.9219 19.8047H30.6836L30.6133 23.4961C28.8945 23.9883 27.0469 24.2344 25.0703 24.2344Z" fill="white"/>
<path d="M39.7891 12.6914V15.668H39.2852L38.6055 14.3789C38.2148 14.3789 37.75 14.4336 37.2109 14.543C36.6797 14.6445 36.2188 14.7812 35.8281 14.9531V23.1797L37.7148 23.4727V24H32.4883V23.4727L33.8828 23.1797V13.8047L32.4883 13.5117V12.9844H35.6992L35.8047 14.3555C36.2734 13.9648 36.9062 13.5898 37.7031 13.2305C38.5078 12.8711 39.1445 12.6914 39.6133 12.6914H39.7891Z" fill="white"/>
<path d="M45.4492 12.7383C46.6523 12.7383 47.5352 12.9844 48.0977 13.4766C48.668 13.9688 48.9531 14.7227 48.9531 15.7383V23.1797L50.3242 23.4727V24H47.3008L47.0781 22.8984C46.1875 23.7891 45.0508 24.2344 43.668 24.2344C41.7852 24.2344 40.8438 23.1406 40.8438 20.9531C40.8438 20.2188 40.9844 19.6133 41.2656 19.1367C41.5547 18.6523 42.0117 18.2852 42.6367 18.0352C43.2617 17.7773 44.168 17.6367 45.3555 17.6133L47.0078 17.5664V15.8438C47.0078 15.0859 46.8672 14.5273 46.5859 14.168C46.3125 13.8086 45.8867 13.6289 45.3086 13.6289C44.5273 13.6289 43.8125 13.8125 43.1641 14.1797L42.7656 15.5508H42.1094V13.1484C43.375 12.875 44.4883 12.7383 45.4492 12.7383ZM47.0078 18.3867L45.4727 18.4336C44.4258 18.4727 43.7148 18.6758 43.3398 19.043C42.9727 19.4102 42.7891 20.0234 42.7891 20.8828C42.7891 22.2578 43.3477 22.9453 44.4648 22.9453C44.9961 22.9453 45.4531 22.8867 45.8359 22.7695C46.2266 22.6445 46.6172 22.4883 47.0078 22.3008V18.3867Z" fill="white"/>
<path d="M55.1055 9.38672C55.1055 9.73047 54.9805 10.0273 54.7305 10.2773C54.4805 10.5273 54.1797 10.6523 53.8281 10.6523C53.4844 10.6523 53.1875 10.5273 52.9375 10.2773C52.6875 10.0273 52.5625 9.73047 52.5625 9.38672C52.5625 9.03516 52.6875 8.73438 52.9375 8.48438C53.1875 8.23438 53.4844 8.10938 53.8281 8.10938C54.1797 8.10938 54.4805 8.23438 54.7305 8.48438C54.9805 8.73438 55.1055 9.03516 55.1055 9.38672ZM54.9883 23.1797L56.875 23.4727V24H51.168V23.4727L53.043 23.1797V13.8047L51.4844 13.5117V12.9844H54.9883V23.1797Z" fill="white"/>
<path d="M67.5391 16.4648C67.5391 17.7305 67.1602 18.6875 66.4023 19.3359C65.6445 19.9844 64.5547 20.3086 63.1328 20.3086C62.4922 20.3086 61.8984 20.25 61.3516 20.1328L60.6133 21.668C60.6367 21.8008 60.7891 21.9258 61.0703 22.043C61.3516 22.1602 61.7031 22.2188 62.125 22.2188H65.3828C66.5703 22.2188 67.4492 22.4766 68.0195 22.9922C68.5977 23.5078 68.8867 24.2188 68.8867 25.125C68.8867 25.9453 68.6562 26.6602 68.1953 27.2695C67.7422 27.8789 67.0742 28.3477 66.1914 28.6758C65.3086 29.0117 64.2383 29.1797 62.9805 29.1797C61.4805 29.1797 60.3359 28.9492 59.5469 28.4883C58.7656 28.0273 58.375 27.3711 58.375 26.5195C58.375 26.1055 58.5156 25.6953 58.7969 25.2891C59.0781 24.8906 59.5938 24.4219 60.3438 23.8828C59.8984 23.7344 59.5234 23.4805 59.2188 23.1211C58.9141 22.7617 58.7617 22.375 58.7617 21.9609L60.6133 19.875C59.3789 19.2969 58.7617 18.1602 58.7617 16.4648C58.7617 15.2617 59.1406 14.332 59.8984 13.6758C60.6641 13.0195 61.7734 12.6914 63.2266 12.6914C63.5156 12.6914 63.8867 12.7227 64.3398 12.7852C64.793 12.8398 65.1406 12.9062 65.3828 12.9844L67.9727 11.6836L68.3828 12.1875L66.7539 13.875C67.2773 14.4609 67.5391 15.3242 67.5391 16.4648ZM67.0586 25.4883C67.0586 25.043 66.9219 24.6953 66.6484 24.4453C66.375 24.1953 65.9609 24.0703 65.4062 24.0703H61.1406C60.8125 24.3516 60.543 24.707 60.332 25.1367C60.1289 25.5742 60.0273 25.9805 60.0273 26.3555C60.0273 27.0273 60.2695 27.5078 60.7539 27.7969C61.2383 28.0938 61.9805 28.2422 62.9805 28.2422C64.2852 28.2422 65.2891 28 65.9922 27.5156C66.7031 27.0312 67.0586 26.3555 67.0586 25.4883ZM63.1562 19.418C64.0078 19.418 64.6094 19.1758 64.9609 18.6914C65.3203 18.1992 65.5 17.457 65.5 16.4648C65.5 15.4258 65.3164 14.6875 64.9492 14.25C64.582 13.8047 63.9922 13.582 63.1797 13.582C62.3594 13.582 61.7578 13.8047 61.375 14.25C60.9922 14.6953 60.8008 15.4336 60.8008 16.4648C60.8008 17.4961 60.9883 18.2461 61.3633 18.7148C61.7383 19.1836 62.3359 19.418 63.1562 19.418Z" fill="white"/>
<path d="M77.8164 20.9062C77.8164 22 77.4688 22.8281 76.7734 23.3906C76.0859 23.9531 75.0664 24.2344 73.7148 24.2344C73.168 24.2344 72.5625 24.1758 71.8984 24.0586C71.2422 23.9492 70.7266 23.8242 70.3516 23.6836V20.9766H70.8789L71.4531 22.5117C72.0391 23.043 72.8008 23.3086 73.7383 23.3086C75.2539 23.3086 76.0117 22.6602 76.0117 21.3633C76.0117 20.4102 75.4141 19.7305 74.2188 19.3242L73.1758 18.9844C72.3867 18.7266 71.8125 18.4648 71.4531 18.1992C71.0938 17.9336 70.8164 17.6094 70.6211 17.2266C70.4258 16.8359 70.3281 16.3672 70.3281 15.8203C70.3281 14.8516 70.6562 14.0898 71.3125 13.5352C71.9766 12.9727 72.8711 12.6914 73.9961 12.6914C74.8008 12.6914 75.8086 12.8125 77.0195 13.0547V15.457H76.4688L75.9766 14.1797C75.5625 13.8125 74.9102 13.6289 74.0195 13.6289C73.3867 13.6289 72.9023 13.7852 72.5664 14.0977C72.2383 14.4102 72.0742 14.832 72.0742 15.3633C72.0742 15.8086 72.2227 16.1836 72.5195 16.4883C72.8242 16.793 73.2812 17.0469 73.8906 17.25C75.0391 17.6406 75.7891 17.9258 76.1406 18.1055C76.4922 18.2852 76.7891 18.5078 77.0312 18.7734C77.2812 19.0312 77.4727 19.3281 77.6055 19.6641C77.7461 20 77.8164 20.4141 77.8164 20.9062Z" fill="white"/>
<path d="M82.9961 23.1797L84.8828 23.4727V24H79.1758V23.4727L81.0508 23.1797V8.15625L79.1758 7.875V7.34766H82.9961V23.1797Z" fill="white"/>
<path d="M89.8164 9.38672C89.8164 9.73047 89.6914 10.0273 89.4414 10.2773C89.1914 10.5273 88.8906 10.6523 88.5391 10.6523C88.1953 10.6523 87.8984 10.5273 87.6484 10.2773C87.3984 10.0273 87.2734 9.73047 87.2734 9.38672C87.2734 9.03516 87.3984 8.73438 87.6484 8.48438C87.8984 8.23438 88.1953 8.10938 88.5391 8.10938C88.8906 8.10938 89.1914 8.23438 89.4414 8.48438C89.6914 8.73438 89.8164 9.03516 89.8164 9.38672ZM89.6992 23.1797L91.5859 23.4727V24H85.8789V23.4727L87.7539 23.1797V13.8047L86.1953 13.5117V12.9844H89.6992V23.1797Z" fill="white"/>
<path d="M100.527 20.9062C100.527 22 100.18 22.8281 99.4844 23.3906C98.7969 23.9531 97.7773 24.2344 96.4258 24.2344C95.8789 24.2344 95.2734 24.1758 94.6094 24.0586C93.9531 23.9492 93.4375 23.8242 93.0625 23.6836V20.9766H93.5898L94.1641 22.5117C94.75 23.043 95.5117 23.3086 96.4492 23.3086C97.9648 23.3086 98.7227 22.6602 98.7227 21.3633C98.7227 20.4102 98.125 19.7305 96.9297 19.3242L95.8867 18.9844C95.0977 18.7266 94.5234 18.4648 94.1641 18.1992C93.8047 17.9336 93.5273 17.6094 93.332 17.2266C93.1367 16.8359 93.0391 16.3672 93.0391 15.8203C93.0391 14.8516 93.3672 14.0898 94.0234 13.5352C94.6875 12.9727 95.582 12.6914 96.707 12.6914C97.5117 12.6914 98.5195 12.8125 99.7305 13.0547V15.457H99.1797L98.6875 14.1797C98.2734 13.8125 97.6211 13.6289 96.7305 13.6289C96.0977 13.6289 95.6133 13.7852 95.2773 14.0977C94.9492 14.4102 94.7852 14.832 94.7852 15.3633C94.7852 15.8086 94.9336 16.1836 95.2305 16.4883C95.5352 16.793 95.9922 17.0469 96.6016 17.25C97.75 17.6406 98.5 17.9258 98.8516 18.1055C99.2031 18.2852 99.5 18.5078 99.7422 18.7734C99.9922 19.0312 100.184 19.3281 100.316 19.6641C100.457 20 100.527 20.4141 100.527 20.9062Z" fill="white"/>
<path d="M105.32 24.2344C104.57 24.2344 104.008 24.0117 103.633 23.5664C103.266 23.1211 103.082 22.4961 103.082 21.6914V13.9688H101.641V13.4414L103.105 12.9844L104.289 10.4883H105.027V12.9844H107.547V13.9688H105.027V21.4805C105.027 21.9883 105.141 22.3711 105.367 22.6289C105.602 22.8867 105.906 23.0156 106.281 23.0156C106.734 23.0156 107.285 22.9531 107.934 22.8281V23.5898C107.66 23.7773 107.266 23.9297 106.75 24.0469C106.234 24.1719 105.758 24.2344 105.32 24.2344Z" fill="white"/>
</svg>
